<?xml version="1.0" standalone="yes"?>
<!DOCTYPE svg PUBLIC "-//W3C//DTD SVG 1.1//EN" "http://www.w3.org/Graphics/SVG/1.1/DTD/svg11.dtd">
<svg width="1188" height="840" version="1.1" xmlns="http://www.w3.org/2000/svg">
<desc>
	This SVG file was created by Unitex (http://igm.univ-mlv.fr/~unitex).
	It represents the graph named: /home/user/workspace/Unitex-GramLab/Unitex/Portuguese (Brazil)/Inflection/A201.grf
</desc>
<rect stroke="none" fill="rgb(255,255,255)" x="0" y="0" width="1188" height="840"/>
<rect stroke="rgb(0,0,0)" stroke-width="2" fill="none" x="10" y="10" width="1168" height="820"/>
<text x="20" y="795" font-family="Dialog" font-size="12" fill="rgb(0,0,0)">A201.grf</text>
<text x="20" y="815" font-family="Dialog" font-size="12" fill="rgb(0,0,0)">Sat Jan 13 03:34:39 BRST 2018</text>
<line stroke="rgb(0,0,0)"  x1="96" y1="165" x2="211" y2="23"/>
<line stroke="rgb(0,0,0)"  x1="96" y1="165" x2="215" y2="71"/>
<line stroke="rgb(0,0,0)"  x1="96" y1="165" x2="211" y2="118"/>
<line stroke="rgb(0,0,0)"  x1="96" y1="165" x2="206" y2="165"/>
<line stroke="rgb(0,0,0)"  x1="231" y1="23" x2="343" y2="165"/>
<line stroke="rgb(0,0,0)"  x1="236" y1="71" x2="343" y2="165"/>
<line stroke="rgb(0,0,0)"  x1="239" y1="118" x2="343" y2="165"/>
<line stroke="rgb(0,0,0)"  x1="240" y1="165" x2="343" y2="165"/>
<line stroke="rgb(0,0,0)"  x1="76" y1="165" x2="91" y2="165"/>
<line stroke="rgb(0,0,0)"  x1="91" y1="155" x2="91" y2="175"/>
<line stroke="rgb(0,0,0)"  x1="96" y1="165" x2="91" y2="155"/>
<line stroke="rgb(0,0,0)"  x1="91" y1="155" x2="91" y2="175"/>
<line stroke="rgb(0,0,0)"  x1="91" y1="175" x2="96" y2="165"/>
<line stroke="rgb(0,0,0)"  x1="76" y1="165" x2="66" y2="165"/>
<circle cx="353" cy="165" r="10" fill="rgb(255,255,255)" stroke="rgb(0,0,0)"/>
<rect stroke="rgb(0,0,0)" stroke-width="1" fill="none" x="348" y="160" width="10" height="10"/>
<line stroke="rgb(0,0,0)"  x1="211" y1="23" x2="226" y2="23"/>
<line stroke="rgb(0,0,0)"  x1="226" y1="13" x2="226" y2="33"/>
<line stroke="rgb(0,0,0)"  x1="231" y1="23" x2="226" y2="13"/>
<line stroke="rgb(0,0,0)"  x1="226" y1="13" x2="226" y2="33"/>
<line stroke="rgb(0,0,0)"  x1="226" y1="33" x2="231" y2="23"/>
<text x="216" y="49" font-family="Times New Roman" font-size="16" fill="rgb(0,0,0)">:ms</text>
<rect stroke="none" fill="rgb(255,255,255)" x="215" y="60" width="16" height="22"/>
<rect stroke="rgb(0,0,0)" stroke-width="1" fill="none" x="215" y="60" width="16" height="22"/>
<line stroke="rgb(0,0,0)"  x1="236" y1="71" x2="231" y2="60"/>
<line stroke="rgb(0,0,0)"  x1="231" y1="60" x2="231" y2="82"/>
<line stroke="rgb(0,0,0)"  x1="231" y1="82" x2="236" y2="71"/>
<text x="220" y="76" font-family="Times New Roman" font-size="13" fill="rgb(0,0,0)">s</text>
<text x="220" y="98" font-family="Times New Roman" font-size="16" fill="rgb(0,0,0)">:mp</text>
<rect stroke="none" fill="rgb(255,255,255)" x="211" y="107" width="23" height="22"/>
<rect stroke="rgb(0,0,0)" stroke-width="1" fill="none" x="211" y="107" width="23" height="22"/>
<line stroke="rgb(0,0,0)"  x1="239" y1="118" x2="234" y2="107"/>
<line stroke="rgb(0,0,0)"  x1="234" y1="107" x2="234" y2="129"/>
<line stroke="rgb(0,0,0)"  x1="234" y1="129" x2="239" y2="118"/>
<text x="216" y="123" font-family="Times New Roman" font-size="13" fill="rgb(0,0,0)">La</text>
<text x="216" y="145" font-family="Times New Roman" font-size="16" fill="rgb(0,0,0)">:fs</text>
<rect stroke="none" fill="rgb(255,255,255)" x="206" y="154" width="29" height="22"/>
<rect stroke="rgb(0,0,0)" stroke-width="1" fill="none" x="206" y="154" width="29" height="22"/>
<line stroke="rgb(0,0,0)"  x1="240" y1="165" x2="235" y2="154"/>
<line stroke="rgb(0,0,0)"  x1="235" y1="154" x2="235" y2="176"/>
<line stroke="rgb(0,0,0)"  x1="235" y1="176" x2="240" y2="165"/>
<text x="211" y="170" font-family="Times New Roman" font-size="13" fill="rgb(0,0,0)">Las</text>
<text x="211" y="192" font-family="Times New Roman" font-size="16" fill="rgb(0,0,0)">:fp</text>
<rect stroke="none" fill="rgb(255,255,255)" x="441" y="82" width="63" height="22"/>
<text x="446" y="98" font-family="Times New Roman" font-size="13" fill="rgb(255,0,0)">abadengo</text>
<rect stroke="none" fill="rgb(255,255,255)" x="444" y="101" width="61" height="22"/>
<text x="449" y="117" font-family="Times New Roman" font-size="13" fill="rgb(255,0,0)">abadesco</text>
<rect stroke="none" fill="rgb(255,255,255)" x="446" y="119" width="62" height="22"/>
<text x="451" y="135" font-family="Times New Roman" font-size="13" fill="rgb(255,0,0)">abafadiço</text>
<rect stroke="none" fill="rgb(255,255,255)" x="536" y="80" width="125" height="22"/>
<text x="541" y="96" font-family="Times New Roman" font-size="13" fill="rgb(255,0,0)">Mais de três entradas</text>
</svg>
