<?xml version="1.0" standalone="yes"?>
<!DOCTYPE svg PUBLIC "-//W3C//DTD SVG 1.1//EN" "http://www.w3.org/Graphics/SVG/1.1/DTD/svg11.dtd">
<svg width="1392" height="840" version="1.1" xmlns="http://www.w3.org/2000/svg">
<desc>
	This SVG file was created by Unitex (http://igm.univ-mlv.fr/~unitex).
	It represents the graph named: /home/user/workspace/Unitex-GramLab/Unitex/Portuguese (Brazil)/Inflection/V005.grf
</desc>
<rect stroke="none" fill="rgb(255,255,255)" x="0" y="0" width="1392" height="840"/>
<rect stroke="rgb(0,0,0)" stroke-width="2" fill="none" x="10" y="10" width="1372" height="820"/>
<text x="20" y="795" font-family="Dialog" font-size="12" fill="rgb(0,0,0)">V005.grf</text>
<text x="20" y="815" font-family="Dialog" font-size="12" fill="rgb(0,0,0)">Sat Jan 13 03:37:06 BRST 2018</text>
<line stroke="rgb(0,0,0)"  x1="126" y1="197" x2="247" y2="194"/>
<line stroke="rgb(0,0,0)"  x1="126" y1="197" x2="188" y2="573"/>
<line stroke="rgb(0,0,0)"  x1="126" y1="197" x2="485" y2="494"/>
<line stroke="rgb(0,0,0)"  x1="126" y1="197" x2="297" y2="559"/>
<line stroke="rgb(0,0,0)"  x1="126" y1="197" x2="302" y2="489"/>
<line stroke="rgb(0,0,0)"  x1="126" y1="197" x2="431" y2="102"/>
<line stroke="rgb(0,0,0)"  x1="270" y1="573" x2="954" y2="201"/>
<line stroke="rgb(0,0,0)"  x1="545" y1="356" x2="954" y2="201"/>
<line stroke="rgb(0,0,0)"  x1="269" y1="194" x2="457" y2="356"/>
<line stroke="rgb(0,0,0)"  x1="269" y1="194" x2="447" y2="214"/>
<line stroke="rgb(0,0,0)"  x1="269" y1="194" x2="449" y2="158"/>
<line stroke="rgb(0,0,0)"  x1="269" y1="194" x2="429" y2="131"/>
<line stroke="rgb(0,0,0)"  x1="269" y1="194" x2="436" y2="420"/>
<line stroke="rgb(0,0,0)"  x1="269" y1="194" x2="871" y2="386"/>
<line stroke="rgb(0,0,0)"  x1="269" y1="194" x2="837" y2="408"/>
<line stroke="rgb(0,0,0)"  x1="458" y1="420" x2="478" y2="418"/>
<line stroke="rgb(0,0,0)"  x1="485" y1="158" x2="954" y2="201"/>
<line stroke="rgb(0,0,0)"  x1="485" y1="158" x2="629" y2="99"/>
<line stroke="rgb(0,0,0)"  x1="546" y1="214" x2="954" y2="201"/>
<line stroke="rgb(0,0,0)"  x1="565" y1="418" x2="954" y2="201"/>
<line stroke="rgb(0,0,0)"  x1="556" y1="494" x2="954" y2="201"/>
<line stroke="rgb(0,0,0)"  x1="520" y1="131" x2="954" y2="201"/>
<line stroke="rgb(0,0,0)"  x1="336" y1="559" x2="367" y2="601"/>
<line stroke="rgb(0,0,0)"  x1="401" y1="601" x2="435" y2="560"/>
<line stroke="rgb(0,0,0)"  x1="321" y1="489" x2="342" y2="475"/>
<line stroke="rgb(0,0,0)"  x1="321" y1="489" x2="363" y2="527"/>
<line stroke="rgb(0,0,0)"  x1="393" y1="475" x2="435" y2="560"/>
<line stroke="rgb(0,0,0)"  x1="454" y1="560" x2="516" y2="597"/>
<line stroke="rgb(0,0,0)"  x1="587" y1="597" x2="954" y2="201"/>
<line stroke="rgb(0,0,0)"  x1="398" y1="527" x2="435" y2="560"/>
<line stroke="rgb(0,0,0)"  x1="891" y1="386" x2="954" y2="201"/>
<line stroke="rgb(0,0,0)"  x1="855" y1="408" x2="954" y2="201"/>
<line stroke="rgb(0,0,0)"  x1="523" y1="102" x2="954" y2="201"/>
<line stroke="rgb(0,0,0)"  x1="648" y1="99" x2="687" y2="72"/>
<line stroke="rgb(0,0,0)"  x1="648" y1="99" x2="687" y2="114"/>
<line stroke="rgb(0,0,0)"  x1="740" y1="72" x2="954" y2="201"/>
<line stroke="rgb(0,0,0)"  x1="714" y1="114" x2="954" y2="201"/>
<line stroke="rgb(0,0,0)"  x1="106" y1="197" x2="121" y2="197"/>
<line stroke="rgb(0,0,0)"  x1="121" y1="187" x2="121" y2="207"/>
<line stroke="rgb(0,0,0)"  x1="126" y1="197" x2="121" y2="187"/>
<line stroke="rgb(0,0,0)"  x1="121" y1="187" x2="121" y2="207"/>
<line stroke="rgb(0,0,0)"  x1="121" y1="207" x2="126" y2="197"/>
<line stroke="rgb(0,0,0)"  x1="106" y1="197" x2="96" y2="197"/>
<circle cx="964" cy="201" r="10" fill="rgb(255,255,255)" stroke="rgb(0,0,0)"/>
<rect stroke="rgb(0,0,0)" stroke-width="1" fill="none" x="959" y="196" width="10" height="10"/>
<rect stroke="none" fill="rgb(255,255,255)" x="71" y="64" width="61" height="22"/>
<text x="76" y="80" font-family="Times New Roman" font-size="13" fill="rgb(255,0,0)">CORTAR</text>
<rect stroke="none" fill="rgb(255,255,255)" x="188" y="554" width="77" height="38"/>
<rect stroke="rgb(0,0,0)" stroke-width="1" fill="none" x="188" y="554" width="77" height="38"/>
<line stroke="rgb(0,0,0)"  x1="270" y1="573" x2="265" y2="554"/>
<line stroke="rgb(0,0,0)"  x1="265" y1="554" x2="265" y2="592"/>
<line stroke="rgb(0,0,0)"  x1="265" y1="592" x2="270" y2="573"/>
<rect stroke="none" fill="rgb(205,205,205)" x="190" y="558" width="73" height="16"/>
<text x="193" y="570" font-family="Times New Roman" font-size="13" fill="rgb(0,0,0)">V_FutSub_1</text>
<rect stroke="none" fill="rgb(205,205,205)" x="190" y="574" width="73" height="16"/>
<text x="193" y="586" font-family="Times New Roman" font-size="13" fill="rgb(0,0,0)">V_Inf_1</text>
<rect stroke="none" fill="rgb(255,255,255)" x="457" y="329" width="83" height="54"/>
<rect stroke="rgb(0,0,0)" stroke-width="1" fill="none" x="457" y="329" width="83" height="54"/>
<line stroke="rgb(0,0,0)"  x1="545" y1="356" x2="540" y2="329"/>
<line stroke="rgb(0,0,0)"  x1="540" y1="329" x2="540" y2="383"/>
<line stroke="rgb(0,0,0)"  x1="540" y1="383" x2="545" y2="356"/>
<rect stroke="none" fill="rgb(205,205,205)" x="459" y="333" width="79" height="16"/>
<text x="462" y="345" font-family="Times New Roman" font-size="13" fill="rgb(0,0,0)">V_PresI_1_2</text>
<rect stroke="none" fill="rgb(205,205,205)" x="459" y="349" width="79" height="16"/>
<text x="462" y="361" font-family="Times New Roman" font-size="13" fill="rgb(0,0,0)">V_PretPer_1</text>
<rect stroke="none" fill="rgb(205,205,205)" x="459" y="365" width="79" height="16"/>
<text x="462" y="377" font-family="Times New Roman" font-size="13" fill="rgb(0,0,0)">V_PretImpI_1</text>
<rect stroke="none" fill="rgb(255,255,255)" x="247" y="183" width="17" height="22"/>
<rect stroke="rgb(0,0,0)" stroke-width="1" fill="none" x="247" y="183" width="17" height="22"/>
<line stroke="rgb(0,0,0)"  x1="269" y1="194" x2="264" y2="183"/>
<line stroke="rgb(0,0,0)"  x1="264" y1="183" x2="264" y2="205"/>
<line stroke="rgb(0,0,0)"  x1="264" y1="205" x2="269" y2="194"/>
<text x="252" y="199" font-family="Times New Roman" font-size="13" fill="rgb(0,0,0)">L</text>
<rect stroke="none" fill="rgb(255,255,255)" x="436" y="409" width="17" height="22"/>
<rect stroke="rgb(0,0,0)" stroke-width="1" fill="none" x="436" y="409" width="17" height="22"/>
<line stroke="rgb(0,0,0)"  x1="458" y1="420" x2="453" y2="409"/>
<line stroke="rgb(0,0,0)"  x1="453" y1="409" x2="453" y2="431"/>
<line stroke="rgb(0,0,0)"  x1="453" y1="431" x2="458" y2="420"/>
<text x="441" y="425" font-family="Times New Roman" font-size="13" fill="rgb(0,0,0)">L</text>
<rect stroke="none" fill="rgb(255,255,255)" x="449" y="147" width="31" height="22"/>
<rect stroke="rgb(0,0,0)" stroke-width="1" fill="none" x="449" y="147" width="31" height="22"/>
<line stroke="rgb(0,0,0)"  x1="485" y1="158" x2="480" y2="147"/>
<line stroke="rgb(0,0,0)"  x1="480" y1="147" x2="480" y2="169"/>
<line stroke="rgb(0,0,0)"  x1="480" y1="169" x2="485" y2="158"/>
<text x="454" y="163" font-family="Times New Roman" font-size="13" fill="rgb(0,0,0)">ndo</text>
<text x="454" y="185" font-family="Dialog" font-size="16" fill="rgb(0,0,0)">:G</text>
<rect stroke="none" fill="rgb(255,255,255)" x="447" y="203" width="94" height="22"/>
<rect stroke="rgb(0,0,0)" stroke-width="1" fill="none" x="447" y="203" width="94" height="22"/>
<line stroke="rgb(0,0,0)"  x1="546" y1="214" x2="541" y2="203"/>
<line stroke="rgb(0,0,0)"  x1="541" y1="203" x2="541" y2="225"/>
<line stroke="rgb(0,0,0)"  x1="541" y1="225" x2="546" y2="214"/>
<rect stroke="none" fill="rgb(205,205,205)" x="449" y="207" width="90" height="16"/>
<text x="452" y="219" font-family="Times New Roman" font-size="13" fill="rgb(0,0,0)">V_Part_Regular</text>
<rect stroke="none" fill="rgb(255,255,255)" x="478" y="407" width="82" height="22"/>
<rect stroke="rgb(0,0,0)" stroke-width="1" fill="none" x="478" y="407" width="82" height="22"/>
<line stroke="rgb(0,0,0)"  x1="565" y1="418" x2="560" y2="407"/>
<line stroke="rgb(0,0,0)"  x1="560" y1="407" x2="560" y2="429"/>
<line stroke="rgb(0,0,0)"  x1="560" y1="429" x2="565" y2="418"/>
<rect stroke="none" fill="rgb(205,205,205)" x="480" y="411" width="78" height="16"/>
<text x="483" y="423" font-family="Times New Roman" font-size="13" fill="rgb(0,0,0)">V_PresSub_1</text>
<rect stroke="none" fill="rgb(255,255,255)" x="485" y="475" width="66" height="38"/>
<rect stroke="rgb(0,0,0)" stroke-width="1" fill="none" x="485" y="475" width="66" height="38"/>
<line stroke="rgb(0,0,0)"  x1="556" y1="494" x2="551" y2="475"/>
<line stroke="rgb(0,0,0)"  x1="551" y1="475" x2="551" y2="513"/>
<line stroke="rgb(0,0,0)"  x1="551" y1="513" x2="556" y2="494"/>
<rect stroke="none" fill="rgb(205,205,205)" x="487" y="479" width="62" height="16"/>
<text x="490" y="491" font-family="Times New Roman" font-size="13" fill="rgb(0,0,0)">V_FutPres</text>
<rect stroke="none" fill="rgb(205,205,205)" x="487" y="495" width="62" height="16"/>
<text x="490" y="507" font-family="Times New Roman" font-size="13" fill="rgb(0,0,0)">V_FutPret</text>
<rect stroke="none" fill="rgb(255,255,255)" x="65" y="102" width="119" height="38"/>
<text x="70" y="118" font-family="Times New Roman" font-size="13" fill="rgb(255,0,0)">Paradigma Regular</text>
<text x="70" y="134" font-family="Times New Roman" font-size="13" fill="rgb(255,0,0)">Primeira Conjugação</text>
<rect stroke="none" fill="rgb(255,255,255)" x="429" y="120" width="86" height="22"/>
<rect stroke="rgb(0,0,0)" stroke-width="1" fill="none" x="429" y="120" width="86" height="22"/>
<line stroke="rgb(0,0,0)"  x1="520" y1="131" x2="515" y2="120"/>
<line stroke="rgb(0,0,0)"  x1="515" y1="120" x2="515" y2="142"/>
<line stroke="rgb(0,0,0)"  x1="515" y1="142" x2="520" y2="131"/>
<rect stroke="none" fill="rgb(205,205,205)" x="431" y="124" width="82" height="16"/>
<text x="434" y="136" font-family="Times New Roman" font-size="13" fill="rgb(0,0,0)">V_PretImpS_1</text>
<rect stroke="none" fill="rgb(255,255,255)" x="297" y="548" width="34" height="22"/>
<rect stroke="rgb(0,0,0)" stroke-width="1" fill="none" x="297" y="548" width="34" height="22"/>
<line stroke="rgb(0,0,0)"  x1="336" y1="559" x2="331" y2="548"/>
<line stroke="rgb(0,0,0)"  x1="331" y1="548" x2="331" y2="570"/>
<line stroke="rgb(0,0,0)"  x1="331" y1="570" x2="336" y2="559"/>
<text x="302" y="564" font-family="Times New Roman" font-size="13" fill="rgb(0,0,0)">LLá-</text>
<rect stroke="none" fill="rgb(255,255,255)" x="367" y="590" width="29" height="22"/>
<rect stroke="rgb(0,0,0)" stroke-width="1" fill="none" x="367" y="590" width="29" height="22"/>
<line stroke="rgb(0,0,0)"  x1="401" y1="601" x2="396" y2="590"/>
<line stroke="rgb(0,0,0)"  x1="396" y1="590" x2="396" y2="612"/>
<line stroke="rgb(0,0,0)"  x1="396" y1="612" x2="401" y2="601"/>
<rect stroke="none" fill="rgb(205,205,205)" x="369" y="594" width="25" height="16"/>
<text x="372" y="606" font-family="Times New Roman" font-size="13" fill="rgb(0,0,0)">lola</text>
<rect stroke="none" fill="rgb(255,255,255)" x="302" y="478" width="14" height="22"/>
<rect stroke="rgb(0,0,0)" stroke-width="1" fill="none" x="302" y="478" width="14" height="22"/>
<line stroke="rgb(0,0,0)"  x1="321" y1="489" x2="316" y2="478"/>
<line stroke="rgb(0,0,0)"  x1="316" y1="478" x2="316" y2="500"/>
<line stroke="rgb(0,0,0)"  x1="316" y1="500" x2="321" y2="489"/>
<text x="307" y="494" font-family="Times New Roman" font-size="13" fill="rgb(0,0,0)">-</text>
<rect stroke="none" fill="rgb(255,255,255)" x="342" y="464" width="46" height="22"/>
<rect stroke="rgb(0,0,0)" stroke-width="1" fill="none" x="342" y="464" width="46" height="22"/>
<line stroke="rgb(0,0,0)"  x1="393" y1="475" x2="388" y2="464"/>
<line stroke="rgb(0,0,0)"  x1="388" y1="464" x2="388" y2="486"/>
<line stroke="rgb(0,0,0)"  x1="388" y1="486" x2="393" y2="475"/>
<rect stroke="none" fill="rgb(205,205,205)" x="344" y="468" width="42" height="16"/>
<text x="347" y="480" font-family="Times New Roman" font-size="13" fill="rgb(0,0,0)">MTlhe</text>
<rect stroke="none" fill="rgb(255,255,255)" x="435" y="549" width="14" height="22"/>
<rect stroke="rgb(0,0,0)" stroke-width="1" fill="none" x="435" y="549" width="14" height="22"/>
<line stroke="rgb(0,0,0)"  x1="454" y1="560" x2="449" y2="549"/>
<line stroke="rgb(0,0,0)"  x1="449" y1="549" x2="449" y2="571"/>
<line stroke="rgb(0,0,0)"  x1="449" y1="571" x2="454" y2="560"/>
<text x="440" y="565" font-family="Times New Roman" font-size="13" fill="rgb(0,0,0)">-</text>
<rect stroke="none" fill="rgb(255,255,255)" x="516" y="578" width="66" height="38"/>
<rect stroke="rgb(0,0,0)" stroke-width="1" fill="none" x="516" y="578" width="66" height="38"/>
<line stroke="rgb(0,0,0)"  x1="587" y1="597" x2="582" y2="578"/>
<line stroke="rgb(0,0,0)"  x1="582" y1="578" x2="582" y2="616"/>
<line stroke="rgb(0,0,0)"  x1="582" y1="616" x2="587" y2="597"/>
<rect stroke="none" fill="rgb(205,205,205)" x="518" y="582" width="62" height="16"/>
<text x="521" y="594" font-family="Times New Roman" font-size="13" fill="rgb(0,0,0)">V_FutPres</text>
<rect stroke="none" fill="rgb(205,205,205)" x="518" y="598" width="62" height="16"/>
<text x="521" y="610" font-family="Times New Roman" font-size="13" fill="rgb(0,0,0)">V_FutPret</text>
<rect stroke="none" fill="rgb(255,255,255)" x="363" y="516" width="30" height="22"/>
<rect stroke="rgb(0,0,0)" stroke-width="1" fill="none" x="363" y="516" width="30" height="22"/>
<line stroke="rgb(0,0,0)"  x1="398" y1="527" x2="393" y2="516"/>
<line stroke="rgb(0,0,0)"  x1="393" y1="516" x2="393" y2="538"/>
<line stroke="rgb(0,0,0)"  x1="393" y1="538" x2="398" y2="527"/>
<text x="368" y="532" font-family="Times New Roman" font-size="13" fill="rgb(0,0,0)">nos</text>
<text x="368" y="554" font-family="Dialog" font-size="16" fill="rgb(0,0,0)">+PRO</text>
<line stroke="rgb(0,0,0)"  x1="871" y1="386" x2="886" y2="386"/>
<line stroke="rgb(0,0,0)"  x1="886" y1="376" x2="886" y2="396"/>
<line stroke="rgb(0,0,0)"  x1="891" y1="386" x2="886" y2="376"/>
<line stroke="rgb(0,0,0)"  x1="886" y1="376" x2="886" y2="396"/>
<line stroke="rgb(0,0,0)"  x1="886" y1="396" x2="891" y2="386"/>
<text x="876" y="412" font-family="Dialog" font-size="16" fill="rgb(0,0,0)">:Y2s</text>
<rect stroke="none" fill="rgb(255,255,255)" x="837" y="397" width="13" height="22"/>
<rect stroke="rgb(0,0,0)" stroke-width="1" fill="none" x="837" y="397" width="13" height="22"/>
<line stroke="rgb(0,0,0)"  x1="855" y1="408" x2="850" y2="397"/>
<line stroke="rgb(0,0,0)"  x1="850" y1="397" x2="850" y2="419"/>
<line stroke="rgb(0,0,0)"  x1="850" y1="419" x2="855" y2="408"/>
<text x="842" y="413" font-family="Times New Roman" font-size="13" fill="rgb(0,0,0)">i</text>
<text x="842" y="435" font-family="Dialog" font-size="16" fill="rgb(0,0,0)">:Y2p</text>
<rect stroke="none" fill="rgb(255,255,255)" x="431" y="91" width="87" height="22"/>
<rect stroke="rgb(0,0,0)" stroke-width="1" fill="none" x="431" y="91" width="87" height="22"/>
<line stroke="rgb(0,0,0)"  x1="523" y1="102" x2="518" y2="91"/>
<line stroke="rgb(0,0,0)"  x1="518" y1="91" x2="518" y2="113"/>
<line stroke="rgb(0,0,0)"  x1="518" y1="113" x2="523" y2="102"/>
<rect stroke="none" fill="rgb(205,205,205)" x="433" y="95" width="83" height="16"/>
<text x="436" y="107" font-family="Times New Roman" font-size="13" fill="rgb(0,0,0)">V_PretMQP_1</text>
<rect stroke="none" fill="rgb(255,255,255)" x="629" y="88" width="14" height="22"/>
<rect stroke="rgb(0,0,0)" stroke-width="1" fill="none" x="629" y="88" width="14" height="22"/>
<line stroke="rgb(0,0,0)"  x1="648" y1="99" x2="643" y2="88"/>
<line stroke="rgb(0,0,0)"  x1="643" y1="88" x2="643" y2="110"/>
<line stroke="rgb(0,0,0)"  x1="643" y1="110" x2="648" y2="99"/>
<text x="634" y="104" font-family="Times New Roman" font-size="13" fill="rgb(0,0,0)">-</text>
<rect stroke="none" fill="rgb(255,255,255)" x="687" y="61" width="48" height="22"/>
<rect stroke="rgb(0,0,0)" stroke-width="1" fill="none" x="687" y="61" width="48" height="22"/>
<line stroke="rgb(0,0,0)"  x1="740" y1="72" x2="735" y2="61"/>
<line stroke="rgb(0,0,0)"  x1="735" y1="61" x2="735" y2="83"/>
<line stroke="rgb(0,0,0)"  x1="735" y1="83" x2="740" y2="72"/>
<rect stroke="none" fill="rgb(205,205,205)" x="689" y="65" width="44" height="16"/>
<text x="692" y="77" font-family="Times New Roman" font-size="13" fill="rgb(0,0,0)">pro-clit</text>
<rect stroke="none" fill="rgb(255,255,255)" x="687" y="103" width="22" height="22"/>
<rect stroke="rgb(0,0,0)" stroke-width="1" fill="none" x="687" y="103" width="22" height="22"/>
<line stroke="rgb(0,0,0)"  x1="714" y1="114" x2="709" y2="103"/>
<line stroke="rgb(0,0,0)"  x1="709" y1="103" x2="709" y2="125"/>
<line stroke="rgb(0,0,0)"  x1="709" y1="125" x2="714" y2="114"/>
<text x="692" y="119" font-family="Times New Roman" font-size="13" fill="rgb(0,0,0)">se</text>
<text x="692" y="141" font-family="Dialog" font-size="16" fill="rgb(0,0,0)">+PRO</text>
</svg>
